<?xml version="1.0" encoding="UTF-8"?>
<svg version="1.1" xmlns="http://www.w3.org/2000/svg" width="500" height="500">
<path d="M0 0 C0.99 0.33 1.98 0.66 3 1 C5.76953254 6.81211759 6.48901095 11.74235255 6.375 18.125 C6.36484863 18.95684814 6.35469727 19.78869629 6.34423828 20.64575195 C5.87809246 39.42709248 -1.22631812 56.23891132 -11 72 C-11.66032227 73.07072754 -11.66032227 73.07072754 -12.33398438 74.16308594 C-15.19469389 78.79328593 -18.08649013 83.40286353 -21 88 C-9.65042804 74.21080042 -0.52743344 58.59821899 8.23828125 43.09375 C9.78844744 40.37150693 11.37586253 37.67857748 13 35 C16.13482592 38.40741948 16.72397689 41.52842565 17 46 C17.07605469 46.90621094 17.15210938 47.81242187 17.23046875 48.74609375 C18.08154716 67.17079132 9.08341758 86.67051552 -2 101 C-2.66 101 -3.32 101 -4 101 C-4.20625 101.66 -4.4125 102.32 -4.625 103 C-6.51152871 107.11606263 -9.20567979 110.4587703 -12 114 C-11.34 114 -10.68 114 -10 114 C-9.566875 113.1028125 -9.566875 113.1028125 -9.125 112.1875 C-8 110 -8 110 -6 107 C-5.34 107 -4.68 107 -4 107 C-3.6596875 105.9171875 -3.6596875 105.9171875 -3.3125 104.8125 C-1.73664872 101.43567583 0.20876616 99.44232961 3 97 C3.66 97 4.32 97 5 97 C5.37125 95.9171875 5.37125 95.9171875 5.75 94.8125 C7.12269592 91.72393418 8.72353296 89.48988582 11 87 C11.66 87 12.32 87 13 87 C13.226875 86.46375 13.45375 85.9275 13.6875 85.375 C15.45570089 82.17539839 17.53670203 79.70962777 20 77 C20.66 77 21.32 77 22 77 C25.58757636 82.96972707 24.75555886 90.55705565 23.3125 97.1328125 C19.60799714 108.95635081 13.13003764 119.68297687 5 129 C4.34 129 3.68 129 3 129 C2.6596875 129.804375 2.6596875 129.804375 2.3125 130.625 C0.54429911 133.82460161 -1.53670203 136.29037223 -4 139 C-4.66 139 -5.32 139 -6 139 C-6 139.66 -6 140.32 -6 141 C-6.66 141 -7.32 141 -8 141 C-8 141.66 -8 142.32 -8 143 C-8.66 143 -9.32 143 -10 143 C-10 143.66 -10 144.32 -10 145 C-10.66 145 -11.32 145 -12 145 C-12 145.66 -12 146.32 -12 147 C-12.66 147 -13.32 147 -14 147 C-14 147.66 -14 148.32 -14 149 C-12.824375 148.01 -12.824375 148.01 -11.625 147 C-9 145 -9 145 -7 145 C-6.74992188 144.41476563 -6.49984375 143.82953125 -6.2421875 143.2265625 C-4.83523859 140.70467294 -3.31287196 139.24913938 -1.125 137.375 C-0.10792969 136.48941406 -0.10792969 136.48941406 0.9296875 135.5859375 C2.88666469 134.08681913 4.76048537 133.01430932 7 132 C7 131.34 7 130.68 7 130 C7.66 130 8.32 130 9 130 C9 129.34 9 128.68 9 128 C10.57421875 126.4140625 10.57421875 126.4140625 12.6875 124.625 C13.41324219 124.00753906 14.13898438 123.39007813 14.88671875 122.75390625 C17.23449112 120.80538537 19.59564775 118.8784002 22 117 C24.6916463 119.6916463 24.29897843 121.11600488 24.3125 124.875 C24.04335919 139.25028572 19.09081453 151.67984877 9 162 C8.34 162 7.68 162 7 162 C7 162.99 7 163.98 7 165 C5.3203125 166.82421875 5.3203125 166.82421875 3.125 168.6875 C2.04605469 169.62142578 2.04605469 169.62142578 0.9453125 170.57421875 C-1 172 -1 172 -3 172 C-3 172.66 -3 173.32 -3 174 C-3.66 174 -4.32 174 -5 174 C-5 174.66 -5 175.32 -5 176 C-7.3359375 177.7265625 -7.3359375 177.7265625 -10.375 179.625 C-11.37273437 180.25664062 -12.37046875 180.88828125 -13.3984375 181.5390625 C-16 183 -16 183 -18 183 C-18 183.66 -18 184.32 -18 185 C-14.535 184.01 -14.535 184.01 -11 183 C-11 182.34 -11 181.68 -11 181 C-5.58823529 177 -5.58823529 177 -3 177 C-3 176.34 -3 175.68 -3 175 C0.465 174.01 0.465 174.01 4 173 C4 172.34 4 171.68 4 171 C6.30078125 169.23828125 6.30078125 169.23828125 9.3125 167.3125 C10.29863281 166.66925781 11.28476562 166.02601563 12.30078125 165.36328125 C13.63689453 164.68845703 13.63689453 164.68845703 15 164 C15.99 164.33 16.98 164.66 18 165 C18.66686659 175.22528776 14.94664087 182.89997943 9 191 C8.34 191.99 7.68 192.98 7 194 C6.34 194 5.68 194 5 194 C5 194.66 5 195.32 5 196 C4.34 196 3.68 196 3 196 C3 196.66 3 197.32 3 198 C-6.05515468 206.70546375 -17.57225331 211.25426365 -29 216 C-19.08241069 212.51174445 -9.5638082 208.52977363 -0.12182617 203.89672852 C0.64798584 203.52088623 1.41779785 203.14504395 2.2109375 202.7578125 C3.23646729 202.24951904 3.23646729 202.24951904 4.28271484 201.73095703 C6 201 6 201 8 201 C9.50903113 205.52709339 7.90206285 208.74792472 6 213 C2.8112451 218.26144558 -1.03575894 222.38964286 -6 226 C-6.66 226 -7.32 226 -8 226 C-8 226.66 -8 227.32 -8 228 C-12.29 229.98 -16.58 231.96 -21 234 C-16.2239885 233.0447977 -12.13249539 231.59810153 -7.62109375 229.83984375 C-5 229 -5 229 -1 229 C-1.67993083 237.32915268 -5.17796921 242.76319959 -11.15625 248.4375 C-16.70192715 253.1372264 -23.29399669 255.42783435 -30 258 C-26.04 257.67 -22.08 257.34 -18 257 C-16.81837567 260.54487298 -17.3552493 262.44942568 -18.72265625 265.87109375 C-22.15412145 271.59020241 -28.96079707 275.52941699 -35 278 C-36.66222851 278.35480316 -38.32855629 278.69151207 -40 279 C-39.24074219 278.9278125 -38.48148438 278.855625 -37.69921875 278.78125 C-36.70535156 278.6884375 -35.71148437 278.595625 -34.6875 278.5 C-33.70136719 278.4071875 -32.71523437 278.314375 -31.69921875 278.21875 C-29 278 -29 278 -26 278 C-24.39846946 277.42322502 -22.81634738 276.7914273 -21.25 276.125 C-11.84083255 272.13054212 -1.83218997 270.0320467 8.31640625 272.58203125 C13.54887419 275.14558937 16.22559716 280.14319318 19 285 C19.38043457 285.64291992 19.76086914 286.28583984 20.15283203 286.94824219 C21.4411905 289.13870176 22.69294861 291.34689063 23.9375 293.5625 C24.35177246 294.27043701 24.76604492 294.97837402 25.19287109 295.70776367 C28.0605397 300.97980577 28.5335146 304.14748531 27 310 C25.22265625 312.96875 25.22265625 312.96875 23.0625 315.5 C22.35222656 316.3559375 21.64195312 317.211875 20.91015625 318.09375 C19 320 19 320 17 320 C17 320.66 17 321.32 17 322 C11.52380952 327 11.52380952 327 9 327 C9 327.66 9 328.32 9 329 C8.34 329 7.68 329 7 329 C7 329.66 7 330.32 7 331 C3.53846154 334 3.53846154 334 1 334 C1 334.66 1 335.32 1 336 C0.01 336 -0.98 336 -2 336 C-2 336.66 -2 337.32 -2 338 C-2.66 338 -3.32 338 -4 338 C-4 338.66 -4 339.32 -4 340 C-7.49019189 343.21249127 -11.27713109 346.06329551 -15 349 C-15.61617187 349.55042969 -16.23234375 350.10085938 -16.8671875 350.66796875 C-21.37829187 354.49455231 -25.60972188 354.55910881 -31.42578125 354.56640625 C-32.27527344 354.70949219 -33.12476563 354.85257812 -34 355 C-35.42147692 356.9285218 -35.42147692 356.9285218 -36 359 C-36.66 359 -37.32 359 -38 359 C-38 359.66 -38 360.32 -38 361 C-38.66 361 -39.32 361 -40 361 C-40.66 362.32 -41.32 363.64 -42 365 C-42.66 365 -43.32 365 -44 365 C-44.66 366.32 -45.32 367.64 -46 369 C-46.66 369 -47.32 369 -48 369 C-48.2578125 369.58265625 -48.515625 370.1653125 -48.78125 370.765625 C-50.09834017 373.1802903 -51.55088384 374.81740177 -53.5 376.75 C-54.1084375 377.36359375 -54.716875 377.9771875 -55.34375 378.609375 C-57 380 -57 380 -59 380 C-59.66 381.32 -60.32 382.64 -61 384 C-61.66 384 -62.32 384 -63 384 C-63.33064453 384.82177734 -63.33064453 384.82177734 -63.66796875 385.66015625 C-65.41870129 388.73548994 -67.78947066 391.00158721 -70.3125 393.4375 C-71.0230957 394.13456055 -71.0230957 394.13456055 -71.74804688 394.84570312 C-73.16266386 396.23322758 -74.58131512 397.61663507 -76 399 C-76.88042969 399.91910156 -77.76085937 400.83820313 -78.66796875 401.78515625 C-81 404 -81 404 -84 405 C-84 405.66 -84 406.32 -84 407 C-84.66 407 -85.32 407 -86 407 C-86 407.66 -86 408.32 -86 409 C-91.47619048 414 -91.47619048 414 -94 414 C-94 414.66 -94 415.32 -94 416 C-96.44851315 418.25618281 -99.28418113 420.08054907 -102 422 C-102.99128906 422.70898438 -103.98257813 423.41796875 -105.00390625 424.1484375 C-112.13037152 429.173839 -119.40538543 433.70405641 -127 438 C-128.1240625 438.66 -129.248125 439.32 -130.40625 440 C-142.75569769 447.24276562 -155.30630858 452.81884633 -169 457 C-169.68690918 457.21543457 -170.37381836 457.43086914 -171.08154297 457.65283203 C-179.98443083 460.42212125 -188.82979005 462.47719746 -198.0625 463.8125 C-198.91859863 463.93641113 -199.77469727 464.06032227 -200.65673828 464.18798828 C-211.75591349 465.65792001 -226.41487801 466.63585368 -236 460 C-241.75293863 454.41626545 -244.49542238 445.85413131 -245.109375 437.984375 C-244.94560822 435.01317767 -243.92919325 433.21499965 -242 431 C-241.34 431 -240.68 431 -240 431 C-239.7525 430.40703125 -239.505 429.8140625 -239.25 429.203125 C-237.81031137 426.6656738 -236.34848507 425.45955898 -234 423.75 C-233.29875 423.22921875 -232.5975 422.7084375 -231.875 422.171875 C-230 421 -230 421 -228 421 C-228 420.34 -228 419.68 -228 419 C-226.25 417.7109375 -226.25 417.7109375 -224 416.375 C-223.2575 415.92898438 -222.515 415.48296875 -221.75 415.0234375 C-221.1725 414.68570312 -220.595 414.34796875 -220 414 C-220.31146472 412.10399631 -220.62421717 410.20820413 -220.9375 408.3125 C-221.11152344 407.25675781 -221.28554687 406.20101563 -221.46484375 405.11328125 C-221.79838278 403.17291184 -222.1809499 401.23956637 -222.63671875 399.32421875 C-223.22102966 395.58588553 -221.75075657 393.26807893 -220 390 C-217.625 387.375 -217.625 387.375 -215 385 C-214.154375 384.0925 -213.30875 383.185 -212.4375 382.25 C-208.20790251 378.34575616 -204.62216106 378.85103204 -199 379 C-185.5971181 380.47158054 -173.88943538 384.2283285 -161.84423828 390.14941406 C-159.29777227 391.32387628 -156.68043403 392.18622191 -154 393 C-150.04 389.04 -150.04 389.04 -146 385 C-150.64524048 381.6377307 -155.24909162 379.46611651 -160.625 377.5 C-161.85331543 377.04826416 -161.85331543 377.04826416 -163.10644531 376.58740234 C-174.40041081 372.60343994 -186.16412449 370.61398302 -198 369 C-198 368.01 -198 367.02 -198 366 C-197.34 366 -196.68 366 -196 366 C-195.690625 365.1646875 -195.690625 365.1646875 -195.375 364.3125 C-193.44224783 361.06196226 -191.32458562 358.76705916 -188 357 C-175.91263705 354.21609948 -159.15353081 360.88850237 -148 365 C-147.67 363.35 -147.34 361.7 -147 360 C-148.06347656 359.62875 -148.06347656 359.62875 -149.1484375 359.25 C-152.34380095 357.84929273 -154.83516412 356.09045554 -157.625 354 C-160.39000188 351.93950544 -163.13034848 349.91310101 -166 348 C-166 347.34 -166 346.68 -166 346 C-168.93720508 344.47700477 -171.9168649 343.19899698 -175 342 C-175 341.34 -175 340.68 -175 340 C-175.66 340 -176.32 340 -177 340 C-179.14225124 336.51884173 -179.52567672 334.05522041 -179 330 C-175.36363636 320.90909091 -175.36363636 320.90909091 -171 318 C-148.16079745 315.29452973 -123.81906077 324.10820522 -104.1796875 335.06640625 C-101.89044429 336.33248263 -101.89044429 336.33248263 -99 335 C-97.3258231 332.91302442 -97.3258231 332.91302442 -95.8125 330.4375 C-95.28269531 329.61121094 -94.75289062 328.78492188 -94.20703125 327.93359375 C-93.80871094 327.29550781 -93.41039062 326.65742188 -93 326 C-95.65905504 322.82069506 -99.05765436 321.312916 -102.75 319.625 C-103.41539795 319.31973389 -104.0807959 319.01446777 -104.76635742 318.69995117 C-124.20875034 309.97571246 -144.70851706 305.57605454 -166 306 C-163.03341289 295.48210024 -163.03341289 295.48210024 -159 293 C-149.60602613 290.60845879 -137.35114198 291.8656968 -128 294 C-128 293.34 -128 292.68 -128 292 C-127.01 291.34 -126.02 290.68 -125 290 C-124.67 289.01 -124.34 288.02 -124 287 C-123.34 287 -122.68 287 -122 287 C-121.8659375 286.44570313 -121.731875 285.89140625 -121.59375 285.3203125 C-121.18528118 283.72405936 -120.74589821 282.13550151 -120.28125 280.5546875 C-120.0234375 279.67039062 -119.765625 278.78609375 -119.5 277.875 C-119.11328125 276.57175781 -119.11328125 276.57175781 -118.71875 275.2421875 C-117.00779954 267.52431312 -116.83452231 260.14714282 -117.6875 252.3125 C-117.82297241 251.0116748 -117.82297241 251.0116748 -117.96118164 249.68457031 C-118.71687769 243.10813604 -120.13406925 237.01104374 -121.984375 230.65234375 C-127.35372984 211.3433177 -129.91778998 191.15428176 -120.3203125 172.78515625 C-118.60830478 169.81302267 -116.83383572 166.89822988 -115 164 C-114.58105469 163.31164062 -114.16210938 162.62328125 -113.73046875 161.9140625 C-112.6875 160.25 -112.6875 160.25 -111 158 C-110.34 158 -109.68 158 -109 158 C-108.34 156.35 -107.68 154.7 -107 153 C-106.34 153 -105.68 153 -105 153 C-104.7525 152.443125 -104.505 151.88625 -104.25 151.3125 C-102.77075182 148.57589087 -101.06532561 146.32349131 -99 144 C-98.34 144 -97.68 144 -97 144 C-97 143.34 -97 142.68 -97 142 C-96.34 142 -95.68 142 -95 142 C-95 141.34 -95 140.68 -95 140 C-94.34 140 -93.68 140 -93 140 C-92.72800781 139.41089844 -92.45601562 138.82179687 -92.17578125 138.21484375 C-89.30040471 132.79843678 -84.49755811 128.1227616 -80 124 C-79.34 124 -78.68 124 -78 124 C-77.76410156 123.44441406 -77.52820313 122.88882813 -77.28515625 122.31640625 C-75.6872248 119.43624409 -73.694995 117.33630924 -71.4375 114.9375 C-67.04304564 110.20598908 -62.9742769 105.31562916 -59.0078125 100.21484375 C-57.05743816 98.06336078 -55.64134956 97.10342092 -53 96 C-51.7897413 94.92628397 -51.7897413 94.92628397 -51.11328125 92.66796875 C-50.03784964 90.09070634 -48.95528696 88.44727058 -47.1875 86.3125 C-43.45233279 81.6337116 -39.89706201 76.839918 -36.375 72 C-35.82481201 71.25274658 -35.27462402 70.50549316 -34.70776367 69.7355957 C-31.04857559 64.69161177 -27.90188566 59.51374569 -25 54 C-24.34 54 -23.68 54 -23 54 C-22.74476563 53.14019531 -22.48953125 52.28039063 -22.2265625 51.39453125 C-20.94377241 47.84438926 -19.31850936 44.92022972 -17.375 41.6875 C-9.58288645 28.34164323 -3.89473284 14.96101702 0 0 Z M-24 91 C-24 94 -24 94 -24 94 Z M-26 94 C-26 97 -26 97 -26 97 Z M-28 97 C-28.33 97.66 -28.66 98.32 -29 99 C-28.34 99 -27.68 99 -27 99 C-27.33 98.34 -27.66 97.68 -28 97 Z M-53 98 C-52 101 -52 101 -52 101 Z M-54 102 C-53 104 -53 104 -53 104 Z M-32 102 C-31 104 -31 104 -31 104 Z M-55 105 C-55.66 107.31 -56.32 109.62 -57 112 C-55.68 112 -54.36 112 -53 112 C-53.33 109.69 -53.66 107.38 -54 105 C-54.33 105 -54.66 105 -55 105 Z M-15.5078125 115.4609375 C-16.04148437 116.09257813 -16.57515625 116.72421875 -17.125 117.375 C-17.66382813 118.00148438 -18.20265625 118.62796875 -18.7578125 119.2734375 C-20.19467147 120.91608428 -20.19467147 120.91608428 -20 123 C-19.34 123 -18.68 123 -18 123 C-14.97482091 119.94441577 -14.97482091 119.94441577 -14 116 C-13.34 116 -12.68 116 -12 116 C-12 115.34 -12 114.68 -12 114 C-14.11052012 113.76804827 -14.11052012 113.76804827 -15.5078125 115.4609375 Z M-60 116 C-59 118 -59 118 -59 118 Z M-53 116 C-52 119 -52 119 -52 119 Z M-54 120 C-53.67 121.32 -53.34 122.64 -53 124 C-52.67 122.68 -52.34 121.36 -52 120 C-52.66 120 -53.32 120 -54 120 Z M-21 123 C-22.32 124.32 -23.64 125.64 -25 127 C-24.67 127.66 -24.34 128.32 -24 129 C-22.68 127.68 -21.36 126.36 -20 125 C-20.33 124.34 -20.66 123.68 -21 123 Z M-55 126 C-56.00533667 127.62170379 -57.00411907 129.24747237 -58 130.875 C-58.556875 131.77992188 -59.11375 132.68484375 -59.6875 133.6171875 C-61.16082329 135.83857467 -61.16082329 135.83857467 -61 138 C-60.34 138 -59.68 138 -59 138 C-59 137.01 -59 136.02 -59 135 C-58.34 135 -57.68 135 -57 135 C-55.29319053 133.37446717 -53.62339805 131.70884005 -52 130 C-51.67 134.62 -51.34 139.24 -51 144 C-50.67 144 -50.34 144 -50 144 C-49.86498106 141.56065775 -49.76596103 139.12875896 -49.6875 136.6875 C-49.64560547 135.99720703 -49.60371094 135.30691406 -49.56054688 134.59570312 C-49.45158413 132.30706875 -49.45158413 132.30706875 -50 129 C-52.3769161 126.94636481 -52.3769161 126.94636481 -55 126 Z M-67 127 C-66 129 -66 129 -66 129 Z M-27 129 C-26.67 129.66 -26.34 130.32 -26 131 C-25.67 130.34 -25.34 129.68 -25 129 C-25.66 129 -26.32 129 -27 129 Z M-71 132 C-70.67 132.66 -70.34 133.32 -70 134 C-69.67 133.34 -69.34 132.68 -69 132 C-69.66 132 -70.32 132 -71 132 Z M-72 134 C-72 137 -72 137 -72 137 Z M-31 134 C-30 136 -30 136 -30 136 Z M-74 137 C-74.33 137.66 -74.66 138.32 -75 139 C-74.34 139 -73.68 139 -73 139 C-73.33 138.34 -73.66 137.68 -74 137 Z M-62 138 C-61 140 -61 140 -61 140 Z M-76 139 C-76 142 -76 142 -76 142 Z M-78 142 C-78.33 142.66 -78.66 143.32 -79 144 C-78.34 144 -77.68 144 -77 144 C-77.33 143.34 -77.66 142.68 -78 142 Z M-65 142 C-65.33 142.66 -65.66 143.32 -66 144 C-65.34 144 -64.68 144 -64 144 C-64.33 143.34 -64.66 142.68 -65 142 Z M-52 144 C-51 148 -51 148 -51 148 Z M-81 145 C-80.67 145.66 -80.34 146.32 -80 147 C-79.67 146.34 -79.34 145.68 -79 145 C-79.66 145 -80.32 145 -81 145 Z M-53 148 C-53.33 149.65 -53.66 151.3 -54 153 C-53.34 152.34 -52.68 151.68 -52 151 C-52.33 150.01 -52.66 149.02 -53 148 Z M-84 149 C-84 152 -84 152 -84 152 Z M-16 149 C-16 149.66 -16 150.32 -16 151 C-15.34 151 -14.68 151 -14 151 C-14 150.34 -14 149.68 -14 149 C-14.66 149 -15.32 149 -16 149 Z M-18 151 C-18 151.66 -18 152.32 -18 153 C-17.34 153 -16.68 153 -16 153 C-16 152.34 -16 151.68 -16 151 C-16.66 151 -17.32 151 -18 151 Z M-86 152 C-87.03013277 153.64821244 -88.03114628 155.31503702 -89 157 C-88.34 157 -87.68 157 -87 157 C-86.34 155.35 -85.68 153.7 -85 152 C-85.33 152 -85.66 152 -86 152 Z M-73 152 C-73.33 152.66 -73.66 153.32 -74 154 C-73.34 154 -72.68 154 -72 154 C-72.33 153.34 -72.66 152.68 -73 152 Z M-55 153 C-55.33 154.32 -55.66 155.64 -56 157 C-54.02 157 -52.04 157 -50 157 C-49.67 158.32 -49.34 159.64 -49 161 C-49 159.35 -49 157.7 -49 156 C-49.61875 155.87625 -50.2375 155.7525 -50.875 155.625 C-53 155 -53 155 -55 153 Z M-20 153 C-19.67 153.66 -19.34 154.32 -19 155 C-18.67 154.34 -18.34 153.68 -18 153 C-18.66 153 -19.32 153 -20 153 Z M-22 155 C-22.99 156.485 -22.99 156.485 -24 158 C-22.68 157.34 -21.36 156.68 -20 156 C-20.66 155.67 -21.32 155.34 -22 155 Z M-90 157 C-90.825 157.94875 -91.65 158.8975 -92.5 159.875 C-92.9640625 160.40867188 -93.428125 160.94234375 -93.90625 161.4921875 C-95.19572458 162.95936421 -95.19572458 162.95936421 -95 165 C-94.34 165 -93.68 165 -93 165 C-91.61061923 163.03852126 -90.2739589 161.03833424 -89 159 C-89.33 158.34 -89.66 157.68 -90 157 Z M-57 157 C-57.99 157.99 -58.98 158.98 -60 160 C-59.67 160.66 -59.34 161.32 -59 162 C-58.01 161.01 -57.02 160.02 -56 159 C-56.33 158.34 -56.66 157.68 -57 157 Z M-25 158 C-25.33 158.66 -25.66 159.32 -26 160 C-25.34 160 -24.68 160 -24 160 C-24.33 159.34 -24.66 158.68 -25 158 Z M-63 164 C-63.33 164.66 -63.66 165.32 -64 166 C-63.34 166 -62.68 166 -62 166 C-62.33 165.34 -62.66 164.68 -63 164 Z M-96 165 C-97.60907108 167.37612865 -97.60907108 167.37612865 -99 170 C-98.67 170.66 -98.34 171.32 -98 172 C-97.67 171.01 -97.34 170.02 -97 169 C-96.01 168.67 -95.02 168.34 -94 168 C-94.66 167.01 -95.32 166.02 -96 165 Z M-50 166 C-49 168 -49 168 -49 168 Z M-51 171 C-51.33 172.65 -51.66 174.3 -52 176 C-51.34 175.34 -50.68 174.68 -50 174 C-50.33 173.01 -50.66 172.02 -51 171 Z M-100 172 C-99 174 -99 174 -99 174 Z M-93 173 C-93 175.64 -93 178.28 -93 181 C-92.67 181 -92.34 181 -92 181 C-92 178.36 -92 175.72 -92 173 C-92.33 173 -92.66 173 -93 173 Z M-101 174 C-100 176 -100 176 -100 176 Z M-102 176 C-102.33 177.65 -102.66 179.3 -103 181 C-102.34 180.34 -101.68 179.68 -101 179 C-101.33 178.01 -101.66 177.02 -102 176 Z M-53 176 C-52 178 -52 178 -52 178 Z M-55 180 C-56.485 181.98 -56.485 181.98 -58 184 C-57.67 184.66 -57.34 185.32 -57 186 C-54.36 185.67 -51.72 185.34 -49 185 C-49 188.3 -49 191.6 -49 195 C-48.67 195 -48.34 195 -48 195 C-48 191.37 -48 187.74 -48 184 C-50.97 183.505 -50.97 183.505 -54 183 C-54.33 182.01 -54.66 181.02 -55 180 Z M-104 181 C-104.33 182.65 -104.66 184.3 -105 186 C-104.34 185.34 -103.68 184.68 -103 184 C-103.33 183.01 -103.66 182.02 -104 181 Z M-94 183 C-93 185 -93 185 -93 185 Z M-22.125 187 C-22.74375 187.66 -23.3625 188.32 -24 189 C-20.27385847 187.88145414 -20.27385847 187.88145414 -18 185 C-20.24362573 184.7715451 -20.24362573 184.7715451 -22.125 187 Z M-106 186 C-106.55564871 188.28831672 -107.09414974 190.58080365 -107.625 192.875 C-107.92664063 194.15117187 -108.22828125 195.42734375 -108.5390625 196.7421875 C-108.69117188 197.81726563 -108.84328125 198.89234375 -109 200 C-108.34 200.66 -107.68 201.32 -107 202 C-106.34 196.72 -105.68 191.44 -105 186 C-105.33 186 -105.66 186 -106 186 Z M-95 186 C-95.33 186.66 -95.66 187.32 -96 188 C-94.68 187.34 -93.36 186.68 -92 186 C-92.99 186 -93.98 186 -95 186 Z M-91 188 C-90 191 -90 191 -90 191 Z M-29 191 C-29.33 191.66 -29.66 192.32 -30 193 C-29.01 192.67 -28.02 192.34 -27 192 C-27.66 191.67 -28.32 191.34 -29 191 Z M-50 195 C-49 197 -49 197 -49 197 Z M-91 196 C-90 200 -90 200 -90 200 Z M-51 198 C-50 201 -50 201 -50 201 Z M-52 201 C-51 203 -51 203 -51 203 Z M-109 202 C-109 205.3 -109 208.6 -109 212 C-106.58878141 210.04366025 -106.58878141 210.04366025 -106.875 206.375 C-106.91625 205.26125 -106.9575 204.1475 -107 203 C-107.66 202.67 -108.32 202.34 -109 202 Z M-93 204 C-93.33 204.99 -93.66 205.98 -94 207 C-93.34 207 -92.68 207 -92 207 C-92 206.34 -92 205.68 -92 205 C-91.34 204.67 -90.68 204.34 -90 204 C-90.99 204 -91.98 204 -93 204 Z M-85 204 C-85 206.31 -85 208.62 -85 211 C-84.67 211 -84.34 211 -84 211 C-84 208.69 -84 206.38 -84 204 C-84.33 204 -84.66 204 -85 204 Z M-54 205 C-54 205.66 -54 206.32 -54 207 C-54.66 207 -55.32 207 -56 207 C-56 207.66 -56 208.32 -56 209 C-53.36 209.33 -50.72 209.66 -48 210 C-48.66 209.34 -49.32 208.68 -50 208 C-50.99 208 -51.98 208 -53 208 C-53.33 207.01 -53.66 206.02 -54 205 Z M-58 209 C-58.33 209.66 -58.66 210.32 -59 211 C-58.01 210.67 -57.02 210.34 -56 210 C-56.66 209.67 -57.32 209.34 -58 209 Z M-49 211 C-48.67 212.32 -48.34 213.64 -48 215 C-47.67 214.01 -47.34 213.02 -47 212 C-47.66 211.67 -48.32 211.34 -49 211 Z M-109 213 C-108.67 216.63 -108.34 220.26 -108 224 C-107.34 223.67 -106.68 223.34 -106 223 C-106.11362262 221.5199159 -106.24122908 220.04089926 -106.375 218.5625 C-106.44460937 217.73878906 -106.51421875 216.91507813 -106.5859375 216.06640625 C-106.72257813 215.38449219 -106.85921875 214.70257813 -107 214 C-107.66 213.67 -108.32 213.34 -109 213 Z M-63 213 C-63.33 213.66 -63.66 214.32 -64 215 C-63.34 215 -62.68 215 -62 215 C-62.33 214.34 -62.66 213.68 -63 213 Z M-50 216 C-49.67 216.66 -49.34 217.32 -49 218 C-48.67 217.34 -48.34 216.68 -48 216 C-48.66 216 -49.32 216 -50 216 Z M-88 217 C-88.33 217.99 -88.66 218.98 -89 220 C-88.01 219.67 -87.02 219.34 -86 219 C-86 218.34 -86 217.68 -86 217 C-86.66 217 -87.32 217 -88 217 Z M-51 218 C-50 220 -50 220 -50 220 Z M-53 222 C-52 224 -52 224 -52 224 Z M-108 225 C-107.67 226.65 -107.34 228.3 -107 230 C-106.67 230 -106.34 230 -106 230 C-106 228.35 -106 226.7 -106 225 C-106.66 225 -107.32 225 -108 225 Z M-83 225 C-82 227 -82 227 -82 227 Z M-84 227 C-83 229 -83 229 -83 229 Z M-85 229 C-85 232 -85 232 -85 232 Z M-61 230 C-61.66 230.66 -62.32 231.32 -63 232 C-61.68 232 -60.36 232 -59 232 C-59 231.34 -59 230.68 -59 230 C-59.66 230 -60.32 230 -61 230 Z M-106 232 C-105 234 -105 234 -105 234 Z M-88 233 C-87.67 233.99 -87.34 234.98 -87 236 C-85.35 236 -83.7 236 -82 236 C-83.32 235.67 -84.64 235.34 -86 235 C-86 234.34 -86 233.68 -86 233 C-86.66 233 -87.32 233 -88 233 Z M-53 235 C-52.34 236.32 -51.68 237.64 -51 239 C-51 237.68 -51 236.36 -51 235 C-51.66 235 -52.32 235 -53 235 Z M-106 236 C-105.01 237.485 -105.01 237.485 -104 239 C-104 238.01 -104 237.02 -104 236 C-104.66 236 -105.32 236 -106 236 Z M-34.1875 237.9375 C-34.785625 238.288125 -35.38375 238.63875 -36 239 C-32.535 238.505 -32.535 238.505 -29 238 C-31.89186786 236.66695302 -31.89186786 236.66695302 -34.1875 237.9375 Z M-53 239 C-52 241 -52 241 -52 241 Z M-81 240 C-80 242 -80 242 -80 242 Z M-104 241 C-103 245 -103 245 -103 245 Z M-54 241 C-53 243 -53 243 -53 243 Z M-103 245 C-103 246.65 -103 248.3 -103 250 C-102.67 250 -102.34 250 -102 250 C-102 248.35 -102 246.7 -102 245 C-102.33 245 -102.66 245 -103 245 Z M-57 245 C-57.33 245.66 -57.66 246.32 -58 247 C-57.34 247 -56.68 247 -56 247 C-56.33 246.34 -56.66 245.68 -57 245 Z M-85 247 C-85.99 248.485 -85.99 248.485 -87 250 C-86.01 250 -85.02 250 -84 250 C-84.33 249.01 -84.66 248.02 -85 247 Z M-59 247 C-59.33 247.66 -59.66 248.32 -60 249 C-59.34 249 -58.68 249 -58 249 C-58.33 248.34 -58.66 247.68 -59 247 Z M-82 251 C-81 253 -81 253 -81 253 Z M-65 251 C-65 251.66 -65 252.32 -65 253 C-62.69 253.66 -60.38 254.32 -58 255 C-58.33 254.34 -58.66 253.68 -59 253 C-59.66 253 -60.32 253 -61 253 C-61.33 252.01 -61.66 251.02 -62 250 C-63.2236068 249.9254644 -63.2236068 249.9254644 -65 251 Z M-58 255 C-57.34 255.66 -56.68 256.32 -56 257 C-56 256.34 -56 255.68 -56 255 C-56.66 255 -57.32 255 -58 255 Z M-82 257 C-81 260 -81 260 -81 260 Z M-56 257 C-55 259 -55 259 -55 259 Z M-57 259 C-56 261 -56 261 -56 261 Z M-39 259 C-39 259.33 -39 259.66 -39 260 C-37.35 260 -35.7 260 -34 260 C-34 259.67 -34 259.34 -34 259 C-35.65 259 -37.3 259 -39 259 Z M-88 264 C-88.33 264.66 -88.66 265.32 -89 266 C-87.68 266.33 -86.36 266.66 -85 267 C-85.33 266.01 -85.66 265.02 -86 264 C-86.66 264 -87.32 264 -88 264 Z M-69 269 C-68.67 269.99 -68.34 270.98 -68 272 C-67.67 271.01 -67.34 270.02 -67 269 C-67.66 269 -68.32 269 -69 269 Z M-84 270 C-83 272 -83 272 -83 272 Z M-66 272 C-65 274 -65 274 -65 274 Z M-65 274 C-64.67 274.99 -64.34 275.98 -64 277 C-63.34 276.67 -62.68 276.34 -62 276 C-62.33 275.34 -62.66 274.68 -63 274 C-63.66 274 -64.32 274 -65 274 Z M-89 278 C-88 280 -88 280 -88 280 Z M-87 280 C-86 282 -86 282 -86 282 Z M-21.65625 283.125 C-24.5024244 284.18757177 -26.12169156 283.82237384 -29 283 C-31.34287418 285.67247634 -31.34287418 285.67247634 -32 289 C-32.62648437 289.20496094 -33.25296875 289.40992188 -33.8984375 289.62109375 C-34.71570313 289.89050781 -35.53296875 290.15992188 -36.375 290.4375 C-37.18710938 290.70433594 -37.99921875 290.97117187 -38.8359375 291.24609375 C-41.01031799 291.95179729 -41.01031799 291.95179729 -43 293 C-44.87056791 293.2275015 -46.74685958 293.40962811 -48.625 293.5625 C-49.62789062 293.64628906 -50.63078125 293.73007812 -51.6640625 293.81640625 C-52.43492187 293.87699219 -53.20578125 293.93757813 -54 294 C-54 294.33 -54 294.66 -54 295 C-48.72 295.33 -43.44 295.66 -38 296 C-38.66 297.98 -39.32 299.96 -40 302 C-40.66 302 -41.32 302 -42 302 C-42 302.66 -42 303.32 -42 304 C-46.455 305.485 -46.455 305.485 -51 307 C-48.04065102 308.26796771 -48.04065102 308.26796771 -45.0625 307.375 C-42 307 -42 307 -39.8125 308.4375 C-38.9153125 309.2109375 -38.9153125 309.2109375 -38 310 C-37.01 310 -36.02 310 -35 310 C-35 310.66 -35 311.32 -35 312 C-33.58919542 313.39997286 -33.58919542 313.39997286 -31.75 314.6875 C-31.14671875 315.14511719 -30.5434375 315.60273438 -29.921875 316.07421875 C-28.04401807 317.18876689 -28.04401807 317.18876689 -25.953125 316.76953125 C-23.73202012 315.97379313 -23.73202012 315.97379313 -21 314 C-21 313.34 -21 312.68 -21 312 C-20.41049561 311.72148193 -19.82099121 311.44296387 -19.21362305 311.15600586 C-15.77136991 309.35838056 -12.85906091 306.95422182 -9.8125 304.5625 C-9.17119141 304.07201172 -8.52988281 303.58152344 -7.86914062 303.07617188 C-7.25876953 302.59857422 -6.64839844 302.12097656 -6.01953125 301.62890625 C-5.46370361 301.19650635 -4.90787598 300.76410645 -4.33520508 300.31860352 C-2.7239015 298.92637126 -2.7239015 298.92637126 -2 296 C0.0625 294.8125 0.0625 294.8125 2 294 C2 293.34 2 292.68 2 292 C2.66 292 3.32 292 4 292 C6.24946694 287.52344637 6.24946694 287.52344637 7.0625 282.6875 C6.0455244 280.74359335 6.0455244 280.74359335 3.4375 279.75 C-5.41722823 277.81805929 -13.39484835 279.62605342 -21.65625 283.125 Z M-86 282 C-85 285 -85 285 -85 285 Z M-77 285 C-76.01 285.99 -75.02 286.98 -74 288 C-74 287.01 -74 286.02 -74 285 C-74.99 285 -75.98 285 -77 285 Z M-70 294 C-69 296 -69 296 -69 296 Z M-172 333 C-171.67 333.66 -171.34 334.32 -171 335 C-168.69 334.34 -166.38 333.68 -164 333 C-164 332.67 -164 332.34 -164 332 C-168.14093698 331.79029441 -168.14093698 331.79029441 -172 333 Z M-159 332 C-159 332.66 -159 333.32 -159 334 C-158.01 334.33 -157.02 334.66 -156 335 C-155.67 334.34 -155.34 333.68 -155 333 C-156.32 332.67 -157.64 332.34 -159 332 Z M-155 334 C-155 334.33 -155 334.66 -155 335 C-152.03 335.33 -149.06 335.66 -146 336 C-149.4352048 333.70986347 -150.985331 333.82157027 -155 334 Z M-173 335 C-172 338 -172 338 -172 338 Z M-144 336 C-143.67 336.66 -143.34 337.32 -143 338 C-141.68 337.67 -140.36 337.34 -139 337 C-140.65 336.67 -142.3 336.34 -144 336 Z M-136 339 C-134.02 339.99 -134.02 339.99 -132 341 C-132.33 340.34 -132.66 339.68 -133 339 C-133.99 339 -134.98 339 -136 339 Z M-128 342 C-127.01 342.99 -126.02 343.98 -125 345 C-124.34 344.67 -123.68 344.34 -123 344 C-125.475 343.01 -125.475 343.01 -128 342 Z M-122 345 C-121.67 345.66 -121.34 346.32 -121 347 C-120.34 347 -119.68 347 -119 347 C-120.75 350.875 -120.75 350.875 -123 352 C-123 352.66 -123 353.32 -123 354 C-123.66 354.185625 -124.32 354.37125 -125 354.5625 C-128.67197679 356.32198888 -131.24951032 358.69983645 -134.23046875 361.44140625 C-136 363 -136 363 -138 364 C-138 364.66 -138 365.32 -138 366 C-139.65 366.33 -141.3 366.66 -143 367 C-139.61847988 369.83432868 -136.24362468 372.07591914 -132.375 374.1875 C-122.48207959 379.89448606 -114.5175558 386.59069589 -108 396 C-104.56663592 395.30900849 -102.97806912 394.24987128 -100.5703125 391.66796875 C-97.74978504 388.67203535 -94.74521825 385.85384153 -91.79296875 382.98828125 C-89.77677004 381.1986717 -89.77677004 381.1986717 -90 379 C-89.34 379 -88.68 379 -88 379 C-86.10388076 377.03365412 -85 375.85195271 -85 373.0625 C-86.44723508 370.07757765 -88.58181746 368.25330645 -91 366 C-91.886875 365.071875 -92.77375 364.14375 -93.6875 363.1875 C-95.71162149 360.77093338 -95.71162149 360.77093338 -98 361 C-98 360.34 -98 359.68 -98 359 C-99.43245513 357.72836287 -99.43245513 357.72836287 -101.32421875 356.50390625 C-102.02353516 356.02759766 -102.72285156 355.55128906 -103.44335938 355.06054688 C-104.18392578 354.56619141 -104.92449219 354.07183594 -105.6875 353.5625 C-106.40873047 353.07201172 -107.12996094 352.58152344 -107.87304688 352.07617188 C-114.41942872 347.05808571 -114.41942872 347.05808571 -122 345 Z M-148 365 C-146.02 365.99 -146.02 365.99 -144 367 C-144.33 366.34 -144.66 365.68 -145 365 C-145.99 365 -146.98 365 -148 365 Z M-210 392 C-210.66 392.66 -211.32 393.32 -212 394 C-210.35 394 -208.7 394 -207 394 C-207.33 393.34 -207.66 392.68 -208 392 C-208.66 392 -209.32 392 -210 392 Z M-206 393 C-206 393.33 -206 393.66 -206 394 C-204.02 394 -202.04 394 -200 394 C-200 393.67 -200 393.34 -200 393 C-201.98 393 -203.96 393 -206 393 Z M-199 393 C-199 393.66 -199 394.32 -199 395 C-197.68 394.67 -196.36 394.34 -195 394 C-196.32 393.67 -197.64 393.34 -199 393 Z M-215 395 C-215 398 -215 398 -215 398 Z M-195 395 C-194.01 395.66 -193.02 396.32 -192 397 C-191.01 397.66 -190.02 398.32 -189 399 C-189 399.66 -189 400.32 -189 401 C-189.72058594 401.2578125 -190.44117188 401.515625 -191.18359375 401.78125 C-194.14080569 403.06093117 -196.46304725 404.60364498 -199.0625 406.5 C-201.96461902 408.61063201 -204.73856835 410.49356506 -208 412 C-208 412.66 -208 413.32 -208 414 C-209.32 413.67 -210.64 413.34 -212 413 C-212.0928125 413.928125 -212.0928125 413.928125 -212.1875 414.875 C-212.455625 415.57625 -212.72375 416.2775 -213 417 C-214.64034193 417.72904086 -216.31301918 418.38655243 -218 419 C-219.69321939 420.29944744 -221.36395804 421.62926214 -223 423 C-223.66 423.33 -224.32 423.66 -225 424 C-225 424.66 -225 425.32 -225 426 C-225.598125 426.28875 -226.19625 426.5775 -226.8125 426.875 C-229.19327792 428.04742026 -229.19327792 428.04742026 -232 430 C-232 430.66 -232 431.32 -232 432 C-233.32 432.66 -234.64 433.32 -236 434 C-236 436.31 -236 438.62 -236 441 C-227.03659241 447.61584846 -215.75098813 446.48451024 -205.18066406 445.0378418 C-185.82640984 442.07332064 -168.74999902 435.0283385 -151 427 C-151.54306122 423.46705118 -152.32074323 421.0705604 -154.4375 418.1875 C-154.86933594 417.58292969 -155.30117187 416.97835938 -155.74609375 416.35546875 C-156.15988281 415.90816406 -156.57367188 415.46085937 -157 415 C-157.66 415 -158.32 415 -159 415 C-159 414.34 -159 413.68 -159 413 C-159.66 413 -160.32 413 -161 413 C-161 412.34 -161 411.68 -161 411 C-161.66 411 -162.32 411 -163 411 C-163 410.34 -163 409.68 -163 409 C-164.97539061 407.60879503 -166.92657002 406.35401462 -169 405.125 C-169.59433838 404.76712402 -170.18867676 404.40924805 -170.80102539 404.04052734 C-182.13909589 397.03729093 -182.13909589 397.03729093 -195 395 Z M-217 399 C-216.67 400.65 -216.34 402.3 -216 404 C-215.67 404 -215.34 404 -215 404 C-215 402.35 -215 400.7 -215 399 C-215.66 399 -216.32 399 -217 399 Z M-215 404 C-214 407 -214 407 -214 407 Z M-214 408 C-213.67 409.65 -213.34 411.3 -213 413 C-212.67 412.01 -212.34 411.02 -212 410 C-212.66 409.34 -213.32 408.68 -214 408 Z " fill="#070709" transform="translate(274,1)"/>
<path d="M0 0 C4.9687134 3.22294923 6.58110029 6.45249627 8 12 C9.16318155 17.76398003 8.97296114 23.1174409 8.25390625 28.93359375 C7.95934795 30.983854 7.95934795 30.983854 8 33 C8.25394531 32.21753906 8.50789063 31.43507813 8.76953125 30.62890625 C9.28580078 29.11103516 9.28580078 29.11103516 9.8125 27.5625 C10.14894531 26.55316406 10.48539062 25.54382813 10.83203125 24.50390625 C11.21746094 23.67761719 11.60289062 22.85132812 12 22 C12.99 21.67 13.98 21.34 15 21 C18.81514312 25.4772754 19.55944234 30.23950081 20 36 C19.125 39.6875 19.125 39.6875 18 42 C17.34 42 16.68 42 16 42 C15.731875 42.58265625 15.46375 43.1653125 15.1875 43.765625 C13.98519009 46.02786601 12.66174087 47.80576318 11 49.75 C10.484375 50.36359375 9.96875 50.9771875 9.4375 51.609375 C8 53 8 53 6 53 C5.7525 53.556875 5.505 54.11375 5.25 54.6875 C3.06963142 58.72118188 0.49010293 61.59991598 -3.0625 64.5 C-5.858152 66.87927829 -7.20806579 68.86411513 -9 72 C-9.66 72 -10.32 72 -11 72 C-11.226875 72.680625 -11.45375 73.36125 -11.6875 74.0625 C-12.78063932 76.5090499 -13.79975372 78.19924653 -15.375 80.3125 C-22.27322854 89.74684197 -25.00752522 99.93970613 -25.75 111.5 C-25.79471436 112.17538818 -25.83942871 112.85077637 -25.88549805 113.54663086 C-26.38586467 123.90607326 -24.61090006 133.55834915 -22.0625 143.5625 C-17.08829631 163.44721207 -12.19219804 184.13032773 -23.13623047 202.9543457 C-24.61859356 205.08872564 -25.85030897 206.52964856 -28 208 C-31.74049442 208.55850504 -35.16244698 208.03865188 -38.875 207.4375 C-39.84953125 207.31052734 -40.8240625 207.18355469 -41.828125 207.05273438 C-44.22554243 206.73542913 -46.61250137 206.38392098 -49 206 C-50.0579047 202.8262859 -49.89855185 201.911454 -49.3125 198.75 C-47.97580693 185.36397371 -55.0915843 172.75088154 -60.75854492 161.07055664 C-67.463548 146.79792463 -68.2236731 134.03839704 -63.125 119.1875 C-61.45232053 114.84859461 -59.4545936 110.94488257 -57 107 C-56.34 107 -55.68 107 -55 107 C-54.92652344 106.47921875 -54.85304688 105.9584375 -54.77734375 105.421875 C-53.66556492 101.95804146 -51.63285929 99.19839899 -49.5625 96.25 C-49.15451172 95.64800781 -48.74652344 95.04601562 -48.32617188 94.42578125 C-47.27295908 92.91039188 -46.14181957 91.4497966 -45 90 C-44.34 90 -43.68 90 -43 90 C-42.76667969 89.30132812 -42.53335938 88.60265625 -42.29296875 87.8828125 C-40.75934741 84.46343925 -38.6488429 81.76541975 -36.3125 78.875 C-19.29147597 57.25817677 -7.69422653 31.72718341 -2.67578125 4.6953125 C-2 2 -2 2 0 0 Z M5 38 C6 40 6 40 6 40 Z M4 41 C5 43 5 43 5 43 Z " fill="#07080A" transform="translate(173,86)"/>
<path d="M0 0 C4.96622349 -0.02465098 9.93241166 -0.04283649 14.89868164 -0.05493164 C16.58944316 -0.0599719 18.28020029 -0.06680405 19.97094727 -0.07543945 C22.39600707 -0.08751857 24.82100944 -0.09323123 27.24609375 -0.09765625 C28.38672523 -0.10539818 28.38672523 -0.10539818 29.55039978 -0.11329651 C31.3673257 -0.11349238 33.18413127 -0.06197277 35 0 C36 1 36 1 36.09765625 3.50390625 C36.08605469 4.51324219 36.07445312 5.52257812 36.0625 6.5625 C36.05347656 7.57441406 36.04445313 8.58632812 36.03515625 9.62890625 C36.02355469 10.41136719 36.01195312 11.19382813 36 12 C35.01 11.67 34.02 11.34 33 11 C32.5875 10.030625 32.175 9.06125 31.75 8.0625 C29.96326293 4.10801688 29.96326293 4.10801688 23 3 C23.33 14.22 23.66 25.44 24 37 C25.32 37.33 26.64 37.66 28 38 C28 38.66 28 39.32 28 40 C21.04907366 41.79378744 13.9975717 41.19107603 7 40 C7 39.34 7 38.68 7 38 C8.65 38 10.3 38 12 38 C12 26.45 12 14.9 12 3 C9.36 3.66 6.72 4.32 4 5 C3.34 7.31 2.68 9.62 2 12 C1.34 12 0.68 12 0 12 C0 8.04 0 4.08 0 0 Z " fill="#FB924B" transform="translate(314,222)"/>
<path d="M0 0 C2.7798379 3.91813359 2.24201136 7.63048777 2.0625 12.3046875 C2.04445313 13.19285156 2.02640625 14.08101562 2.0078125 14.99609375 C1.96077374 17.18339598 1.89507009 19.36848566 1.8125 21.5546875 C2.8025 21.5546875 3.7925 21.5546875 4.8125 21.5546875 C4.5625 23.4296875 4.5625 23.4296875 3.8125 25.5546875 C1.31409405 27.42849196 0.17930834 27.60470682 -2.9375 27.1796875 C-3.68 26.9734375 -4.4225 26.7671875 -5.1875 26.5546875 C-5.5175 25.5646875 -5.8475 24.5746875 -6.1875 23.5546875 C-7.239375 24.2353125 -8.29125 24.9159375 -9.375 25.6171875 C-11.90384955 27.05275664 -12.96590753 27.5546875 -15.9375 27.5546875 C-18.78471749 26.28925751 -19.82005302 25.36555074 -21.1875 22.5546875 C-21.375 19.6796875 -21.375 19.6796875 -20.1875 16.5546875 C-16.63356482 13.14614058 -12.61744712 10.66513422 -8.1875 8.5546875 C-8.1875 6.5746875 -8.1875 4.5946875 -8.1875 2.5546875 C-9.8375 2.2246875 -11.4875 1.8946875 -13.1875 1.5546875 C-12.8575 2.2146875 -12.5275 2.8746875 -12.1875 3.5546875 C-12.147508 5.55428762 -12.14403201 7.55515992 -12.1875 9.5546875 C-15.0625 10.1796875 -15.0625 10.1796875 -18.1875 10.5546875 C-20.1875 8.5546875 -20.1875 8.5546875 -20.5 5.6171875 C-20.1875 2.5546875 -20.1875 2.5546875 -19.1875 0.8046875 C-13.42085472 -2.7994658 -5.85209236 -3.86656103 0 0 Z M-10.3125 14.3046875 C-10.93125 15.0471875 -11.55 15.7896875 -12.1875 16.5546875 C-12.05108623 18.77327003 -12.05108623 18.77327003 -11.1875 20.5546875 C-9.8675 20.2246875 -8.5475 19.8946875 -7.1875 19.5546875 C-7.1875 17.2446875 -7.1875 14.9346875 -7.1875 12.5546875 C-8.51765153 12.44873629 -8.51765153 12.44873629 -10.3125 14.3046875 Z " fill="#F8924C" transform="translate(480.1875,236.4453125)"/>
<path d="M0 0 C2.76171554 3.92391253 2.23013457 7.63850914 2.05078125 12.30859375 C2.03273438 13.19675781 2.0146875 14.08492187 1.99609375 15 C1.94905499 17.18730223 1.88335134 19.37239191 1.80078125 21.55859375 C3.12078125 21.55859375 4.44078125 21.55859375 5.80078125 21.55859375 C5.17578125 23.43359375 5.17578125 23.43359375 3.80078125 25.55859375 C0.92578125 26.93359375 0.92578125 26.93359375 -2.19921875 27.55859375 C-4.57421875 26.68359375 -4.57421875 26.68359375 -6.19921875 25.55859375 C-6.19921875 24.89859375 -6.19921875 24.23859375 -6.19921875 23.55859375 C-7.25109375 24.23921875 -8.30296875 24.91984375 -9.38671875 25.62109375 C-11.89006637 27.03712877 -13.0144185 27.55439374 -15.94921875 27.62109375 C-18.19921875 26.55859375 -18.19921875 26.55859375 -20.19921875 24.43359375 C-21.19921875 21.55859375 -21.19921875 21.55859375 -20.38671875 18.05859375 C-18.23524214 13.76503562 -14.51543155 11.44693685 -10.19921875 9.55859375 C-9.20921875 9.55859375 -8.21921875 9.55859375 -7.19921875 9.55859375 C-7.19921875 6.91859375 -7.19921875 4.27859375 -7.19921875 1.55859375 C-9.17921875 1.55859375 -11.15921875 1.55859375 -13.19921875 1.55859375 C-12.53921875 3.53859375 -11.87921875 5.51859375 -11.19921875 7.55859375 C-12.38671875 9.12109375 -12.38671875 9.12109375 -14.19921875 10.55859375 C-18.62027138 10.13754112 -18.62027138 10.13754112 -20.19921875 8.55859375 C-20.07421875 5.18359375 -20.07421875 5.18359375 -19.19921875 1.55859375 C-13.7790451 -2.95821762 -6.06149167 -3.97280715 0 0 Z M-8.19921875 12.55859375 C-10.39426363 14.84396302 -10.39426363 14.84396302 -12.19921875 17.55859375 C-11.86921875 18.54859375 -11.53921875 19.53859375 -11.19921875 20.55859375 C-9.87921875 20.55859375 -8.55921875 20.55859375 -7.19921875 20.55859375 C-7.19921875 17.91859375 -7.19921875 15.27859375 -7.19921875 12.55859375 C-7.52921875 12.55859375 -7.85921875 12.55859375 -8.19921875 12.55859375 Z " fill="#F7924D" transform="translate(414.19921875,236.44140625)"/>
<path d="M0 0 C3.46158435 3.86099793 2.7377751 9.76054067 2.6875 14.6875 C2.67847656 15.83992188 2.66945313 16.99234375 2.66015625 18.1796875 C2.64855469 19.04851562 2.63695312 19.91734375 2.625 20.8125 C3.615 21.1425 4.605 21.4725 5.625 21.8125 C4.58078741 24.94513778 3.81310414 25.71635789 0.8125 27.25 C-2.375 27.8125 -2.375 27.8125 -4.75 26.25 C-5.61625 25.775625 -6.4825 25.30125 -7.375 24.8125 C-9.35063659 25.3510782 -9.35063659 25.3510782 -11.375 26.3125 C-15.04166667 27.90972222 -15.04166667 27.90972222 -18.375 26.9375 C-20.375 24.8125 -20.375 24.8125 -21 21.4375 C-20.20801517 16.84398799 -19.0436021 15.64038079 -15.375 12.8125 C-12.76632377 11.33698258 -10.11338624 10.02880555 -7.375 8.8125 C-7.375 6.5025 -7.375 4.1925 -7.375 1.8125 C-9.025 2.1425 -10.675 2.4725 -12.375 2.8125 C-12.16875 3.76125 -11.9625 4.71 -11.75 5.6875 C-11.62625 6.71875 -11.5025 7.75 -11.375 8.8125 C-12.035 9.4725 -12.695 10.1325 -13.375 10.8125 C-18.94318182 10.24431818 -18.94318182 10.24431818 -20.375 8.8125 C-20.8125 6.5625 -20.8125 6.5625 -20.375 3.8125 C-14.43665425 -2.26394682 -8.04272417 -4.02136209 0 0 Z M-10 14 C-11.79649467 16.36810662 -11.61021845 17.91147251 -11.375 20.8125 C-9.725 20.4825 -8.075 20.1525 -6.375 19.8125 C-6.375 17.5025 -6.375 15.1925 -6.375 12.8125 C-8.44131217 12.6158278 -8.44131217 12.6158278 -10 14 Z " fill="#F8914C" transform="translate(370.375,236.1875)"/>
<path d="M0 0 C3.96 0 7.92 0 12 0 C12 12.54 12 25.08 12 38 C12.99 38.33 13.98 38.66 15 39 C11.85030499 40.84586777 9.51115326 41.27170838 5.875 41.25 C4.57175781 41.25773437 4.57175781 41.25773437 3.2421875 41.265625 C1 41 1 41 -1 39 C-0.01 38.34 0.98 37.68 2 37 C2.30470628 34.48128636 2.42023896 32.21200568 2.3984375 29.69140625 C2.40130768 28.96888168 2.40417786 28.24635712 2.40713501 27.50193787 C2.40917756 25.97288226 2.40363427 24.44380063 2.39111328 22.91479492 C2.375084 20.57476219 2.39094177 18.23646265 2.41015625 15.89648438 C2.40817339 14.41145452 2.40432883 12.92642574 2.3984375 11.44140625 C2.40754654 10.39129112 2.40754654 10.39129112 2.4168396 9.31996155 C2.36366299 5.38462485 2.36366299 5.38462485 0.47509766 2.03491211 C-0.01168457 1.69339111 -0.4984668 1.35187012 -1 1 C-0.67 0.67 -0.34 0.34 0 0 Z " fill="#F8924D" transform="translate(377,222)"/>
<path d="M0 0 C3 1 3 1 4.1875 3.0625 C4.455625 3.701875 4.72375 4.34125 5 5 C4.01 5.495 4.01 5.495 3 6 C3.2475 6.8971875 3.2475 6.8971875 3.5 7.8125 C4 10 4 10 4 13 C4.66 13.33 5.32 13.66 6 14 C5.02354225 18.52435888 2.91912862 22.17056848 0.6875 26.1875 C0.29626953 26.92419922 -0.09496094 27.66089844 -0.49804688 28.41992188 C-0.88669922 29.12052734 -1.27535156 29.82113281 -1.67578125 30.54296875 C-2.02552002 31.18258545 -2.37525879 31.82220215 -2.7355957 32.48120117 C-4.33565662 34.40318977 -5.57299955 34.6284584 -8 35 C-8 34.34 -8 33.68 -8 33 C-8.99 33 -9.98 33 -11 33 C-12.6875 31.6875 -12.6875 31.6875 -14 30 C-14 29.01 -14 28.02 -14 27 C-11.69 27 -9.38 27 -7 27 C-7 26.34 -7 25.68 -7 25 C-7.66 24.67 -8.32 24.34 -9 24 C-10 22 -11 20 -12 18 C-10.68 17.67 -9.36 17.34 -8 17 C-8.33 16.01 -8.66 15.02 -9 14 C-9 10 -9 10 -8 8 C-7.34 8 -6.68 8 -6 8 C-5.7525 7.4225 -5.505 6.845 -5.25 6.25 C-3.83316683 3.6997003 -2.12372463 1.98214299 0 0 Z " fill="#0F1012" transform="translate(175,146)"/>
<path d="M0 0 C1.67542976 0.28604898 3.34385343 0.61781233 5 1 C5.625 3.875 5.625 3.875 6 7 C5.34 7.66 4.68 8.32 4 9 C1.69 9 -0.62 9 -3 9 C-3 14.28 -3 19.56 -3 25 C-2.34 25.33 -1.68 25.66 -1 26 C-1 26.66 -1 27.32 -1 28 C-11.55808656 29.33257403 -11.55808656 29.33257403 -16 28 C-15.67 27.34 -15.34 26.68 -15 26 C-14.34 26 -13.68 26 -13 26 C-13.33 18.74 -13.66 11.48 -14 4 C-14.66 3.67 -15.32 3.34 -16 3 C-16 2.34 -16 1.68 -16 1 C-11 1 -6 1 -1 1 C-0.67 0.67 -0.34 0.34 0 0 Z " fill="#F69051" transform="translate(436,234)"/>
<path d="M0 0 C4.29 0 8.58 0 13 0 C13 8.25 13 16.5 13 25 C13.66 25 14.32 25 15 25 C15 25.66 15 26.32 15 27 C4.44191344 28.33257403 4.44191344 28.33257403 0 27 C0.48678223 26.59982666 0.97356445 26.19965332 1.47509766 25.78735352 C3.40864599 23.52102188 3.38611732 22.34950745 3.3984375 19.40234375 C3.40230469 18.51869141 3.40617187 17.63503906 3.41015625 16.72460938 C3.39855469 15.80486328 3.38695312 14.88511719 3.375 13.9375 C3.38660156 13.01388672 3.39820313 12.09027344 3.41015625 11.13867188 C3.40628906 10.25630859 3.40242188 9.37394531 3.3984375 8.46484375 C3.39505371 7.656521 3.39166992 6.84819824 3.38818359 6.01538086 C3.26008301 5.35030518 3.13198242 4.68522949 3 4 C2.01 3.34 1.02 2.68 0 2 C0 1.34 0 0.68 0 0 Z " fill="#FB904D" transform="translate(442,235)"/>
<path d="M0 0 C0.66 0 1.32 0 2 0 C2 0.66 2 1.32 2 2 C2.99 2.33 3.98 2.66 5 3 C4.01 3.495 4.01 3.495 3 4 C3.20625 4.886875 3.4125 5.77375 3.625 6.6875 C4.02550239 10.2252711 3.56683516 11.86632967 2 15 C1.01 15 0.02 15 -1 15 C-0.67 16.65 -0.34 18.3 0 20 C-1.32 19.67 -2.64 19.34 -4 19 C-4 18.01 -4 17.02 -4 16 C-5.32 16.33 -6.64 16.66 -8 17 C-9.09658936 13.71023192 -8.79953138 12.28696233 -8 9 C-7.360625 8.87625 -6.72125 8.7525 -6.0625 8.625 C-5.381875 8.41875 -4.70125 8.2125 -4 8 C-3.67 7.34 -3.34 6.68 -3 6 C-3.66 6 -4.32 6 -5 6 C-5 5.01 -5 4.02 -5 3 C-3.35 3.33 -1.7 3.66 0 4 C-0.33 3.01 -0.66 2.02 -1 1 C-0.67 0.67 -0.34 0.34 0 0 Z " fill="#0F1012" transform="translate(132,261)"/>
<path d="M0 0 C1.32451172 0.02707031 1.32451172 0.02707031 2.67578125 0.0546875 C3.67158203 0.08949219 3.67158203 0.08949219 4.6875 0.125 C6.8125 4.75 6.8125 4.75 5.6875 8.125 C5.0275 8.125 4.3675 8.125 3.6875 8.125 C3.3575 8.785 3.0275 9.445 2.6875 10.125 C0.6875 9.125 0.6875 9.125 -0.3125 6.125 C-5.73371998 5.84591532 -9.69107235 6.69778947 -14.75 8.625 C-15.38615234 8.86347656 -16.02230469 9.10195313 -16.67773438 9.34765625 C-18.22652732 9.92990924 -19.77010253 10.52601069 -21.3125 11.125 C-21.3125 10.135 -21.3125 9.145 -21.3125 8.125 C-19.58531484 7.16310003 -17.85565942 6.20563492 -16.125 5.25 C-14.68060547 4.44949219 -14.68060547 4.44949219 -13.20703125 3.6328125 C-8.60591905 1.23601181 -5.23231854 -0.13952849 0 0 Z " fill="#040405" transform="translate(267.3125,285.875)"/>
<path d="M0 0 C4.96622349 -0.02465098 9.93241166 -0.04283649 14.89868164 -0.05493164 C16.58944316 -0.0599719 18.28020029 -0.06680405 19.97094727 -0.07543945 C22.39600707 -0.08751857 24.82100944 -0.09323123 27.24609375 -0.09765625 C28.38672523 -0.10539818 28.38672523 -0.10539818 29.55039978 -0.11329651 C31.3673257 -0.11349238 33.18413127 -0.06197277 35 0 C36 1 36 1 36.09765625 3.50390625 C36.08605469 4.51324219 36.07445312 5.52257812 36.0625 6.5625 C36.05347656 7.57441406 36.04445313 8.58632812 36.03515625 9.62890625 C36.02355469 10.41136719 36.01195312 11.19382813 36 12 C33 11 33 11 31.5 8.0625 C31.005 7.051875 30.51 6.04125 30 5 C29.01 4.34 28.02 3.68 27 3 C27.33 2.67 27.66 2.34 28 2 C21.07 2 14.14 2 7 2 C7.33 2.66 7.66 3.32 8 4 C6.68 4.33 5.36 4.66 4 5 C3.34 7.31 2.68 9.62 2 12 C1.34 12 0.68 12 0 12 C0 8.04 0 4.08 0 0 Z " fill="#E58B54" transform="translate(314,222)"/>
<path d="M0 0 C-0.43504858 2.52328175 -0.70922925 3.73159623 -2.625 5.5 C-3.07875 5.995 -3.5325 6.49 -4 7 C-3.77242269 9.16299211 -3.77242269 9.16299211 -3 11 C-4.98 11.99 -4.98 11.99 -7 13 C-6.67 14.32 -6.34 15.64 -6 17 C-8.31 16.67 -10.62 16.34 -13 16 C-13 15.01 -13 14.02 -13 13 C-12.34 12.67 -11.68 12.34 -11 12 C-12.32 11.34 -13.64 10.68 -15 10 C-15 9.34 -15 8.68 -15 8 C-13.68 8 -12.36 8 -11 8 C-10.67 7.01 -10.34 6.02 -10 5 C-9.34 5 -8.68 5 -8 5 C-7.814375 3.7934375 -7.814375 3.7934375 -7.625 2.5625 C-7.41875 1.716875 -7.2125 0.87125 -7 0 C-4.3333581 -1.33332095 -2.83319697 -0.67102033 0 0 Z " fill="#101113" transform="translate(71,447)"/>
<path d="M0 0 C3.65546071 2.5588225 4.50599925 5.17292401 5.375 9.375 C6.06142477 13.7953388 6.00340174 16.88189643 4 21 C3.34 21 2.68 21 2 21 C1.731875 21.598125 1.46375 22.19625 1.1875 22.8125 C0.01506533 24.97224808 -1.19369282 26.35790256 -3 28 C-4.5 26.625 -4.5 26.625 -6 25 C-6 24.34 -6 23.68 -6 23 C-4.68 23 -3.36 23 -2 23 C-1.67 22.34 -1.34 21.68 -1 21 C-0.34 21 0.32 21 1 21 C0.67 19.68 0.34 18.36 0 17 C0.99 16.67 1.98 16.34 3 16 C1.68 15.34 0.36 14.68 -1 14 C-1 13.34 -1 12.68 -1 12 C-0.505 11.54625 -0.01 11.0925 0.5 10.625 C2.45218674 8.87871033 2.45218674 8.87871033 2 5 C1.01 6.485 1.01 6.485 0 8 C-2.125 8.6875 -2.125 8.6875 -4 9 C-3.71848913 7.68528432 -3.42446661 6.37324233 -3.125 5.0625 C-2.96257812 4.33160156 -2.80015625 3.60070312 -2.6328125 2.84765625 C-2 1 -2 1 0 0 Z " fill="#0A090B" transform="translate(187,107)"/>
<path d="M0 0 C-0.33 1.32 -0.66 2.64 -1 4 C-1.66 4 -2.32 4 -3 4 C-3 4.66 -3 5.32 -3 6 C-3.495 6.474375 -3.99 6.94875 -4.5 7.4375 C-6.34626591 8.99969942 -6.34626591 8.99969942 -6 12 C-4.68 12.66 -3.36 13.32 -2 14 C-2.33 14.66 -2.66 15.32 -3 16 C-6.3125 15.8125 -6.3125 15.8125 -10 15 C-11.9375 12.4375 -11.9375 12.4375 -13 10 C-11.625 7.5 -11.625 7.5 -10 5 C-9.34 5 -8.68 5 -8 5 C-8 4.34 -8 3.68 -8 3 C-5.04518508 0.25624329 -4.22528092 0 0 0 Z " fill="#050505" transform="translate(57,427)"/>
<path d="M0 0 C2.31 0.33 4.62 0.66 7 1 C7 3.97 7 6.94 7 10 C7.99 10 8.98 10 10 10 C10 10.66 10 11.32 10 12 C9.01 12.66 8.02 13.32 7 14 C5.80767387 16.05003955 5.80767387 16.05003955 5 18 C4.67 16.35 4.34 14.7 4 13 C2.68 13 1.36 13 0 13 C-0.33 13.66 -0.66 14.32 -1 15 C-3.0625 15.625 -3.0625 15.625 -5 16 C-5.12375 16.763125 -5.2475 17.52625 -5.375 18.3125 C-6 21 -6 21 -8 24 C-8.98226685 20.48021044 -9.38513378 18.71774931 -7.625 15.4375 C-4.12481241 12.18732581 -0.24896814 10.13356306 4 8 C4 6.02 4 4.04 4 2 C2.68 1.34 1.36 0.68 0 0 Z " fill="#F08F56" transform="translate(468,237)"/>
<path d="M0 0 C9.24 0 18.48 0 28 0 C24.77208445 2.1519437 23.71599191 2.20086443 20 2 C20 2.99 20 3.98 20 5 C18.35 5 16.7 5 15 5 C15 4.34 15 3.68 15 3 C15.66 3 16.32 3 17 3 C17 2.34 17 1.68 17 1 C14.69 1.66 12.38 2.32 10 3 C10 12.9 10 22.8 10 33 C9.67 33 9.34 33 9 33 C9 22.77 9 12.54 9 2 C6.03 1.67 3.06 1.34 0 1 C0 0.67 0 0.34 0 0 Z " fill="#FEBB28" transform="translate(317,223)"/>
<path d="M0 0 C0.66 0 1.32 0 2 0 C2 0.99 2 1.98 2 3 C3.65 2.67 5.3 2.34 7 2 C7.56731129 6.822146 5.92073127 9.24477409 3 13 C2.01 13.66 1.02 14.32 0 15 C-3 13 -3 13 -3.6875 10.875 C-3.790625 10.25625 -3.89375 9.6375 -4 9 C-3.01 9 -2.02 9 -1 9 C-0.67 8.01 -0.34 7.02 0 6 C-1.32 5.67 -2.64 5.34 -4 5 C-4 4.34 -4 3.68 -4 3 C-2.68 3 -1.36 3 0 3 C0 2.01 0 1.02 0 0 Z " fill="#0F1012" transform="translate(175,305)"/>
<path d="M0 0 C0.66 0 1.32 0 2 0 C3 1 4 2 5 3 C5.66 3 6.32 3 7 3 C7.33 3.99 7.66 4.98 8 6 C7.01 6.495 7.01 6.495 6 7 C5.62243192 8.32148827 5.2981424 9.65835921 5 11 C4.649375 11.845625 4.29875 12.69125 3.9375 13.5625 C2.82051046 16.03141067 2.82051046 16.03141067 3 19 C0.29120665 20.35439668 -2.00933268 20.06501451 -5 20 C-4.67 19.34 -4.34 18.68 -4 18 C-1.9375 17.375 -1.9375 17.375 0 17 C-0.185625 16.38125 -0.37125 15.7625 -0.5625 15.125 C-1 13 -1 13 0 11 C0.99 11 1.98 11 3 11 C2.34 10.38125 1.68 9.7625 1 9.125 C-1 7 -1 7 -1 5 C-1.33 4.01 -1.66 3.02 -2 2 C-1.34 2 -0.68 2 0 2 C0 1.34 0 0.68 0 0 Z " fill="#111315" transform="translate(196,245)"/>
<path d="M0 0 C0.53625 0.268125 1.0725 0.53625 1.625 0.8125 C1.625 1.4725 1.625 2.1325 1.625 2.8125 C0.965 3.4725 0.305 4.1325 -0.375 4.8125 C-0.21 5.6375 -0.045 6.4625 0.125 7.3125 C0.29 8.1375 0.455 8.9625 0.625 9.8125 C-0.035 10.4725 -0.695 11.1325 -1.375 11.8125 C-6.94318182 11.24431818 -6.94318182 11.24431818 -8.375 9.8125 C-8.8125 7.5625 -8.8125 7.5625 -8.375 4.8125 C-3.50691489 -0.2768617 -3.50691489 -0.2768617 0 0 Z " fill="#EC9053" transform="translate(358.375,235.1875)"/>
<path d="M0 0 C4.67692308 1.47692308 4.67692308 1.47692308 6.3125 4.125 C6.539375 4.74375 6.76625 5.3625 7 6 C5.35 7.65 3.7 9.3 2 11 C-0.4375 10.3125 -0.4375 10.3125 -3 9 C-4.0625 6.625 -4.0625 6.625 -4 4 C-2.0625 1.6875 -2.0625 1.6875 0 0 Z " fill="#F09352" transform="translate(449,221)"/>
<path d="M0 0 C0.103125 0.639375 0.20625 1.27875 0.3125 1.9375 C0.539375 2.618125 0.76625 3.29875 1 4 C1.99 4.33 2.98 4.66 4 5 C3.505 5.763125 3.01 6.52625 2.5 7.3125 C0.75631692 9.92363751 0.75631692 9.92363751 1 13 C0.67 13.99 0.34 14.98 0 16 C-0.66 16 -1.32 16 -2 16 C-5.20224719 9.80898876 -5.20224719 9.80898876 -4.25 6 C-3.1000253 3.24006071 -2.27260678 1.85940554 0 0 Z " fill="#111214" transform="translate(166,336)"/>
<path d="M0 0 C7.95184927 0.60013957 7.95184927 0.60013957 11 4 C12.01066801 8.48525215 12.10575505 12.78996503 12.0625 17.375 C12.05347656 18.62023437 12.04445313 19.86546875 12.03515625 21.1484375 C12.02355469 22.08945312 12.01195312 23.03046875 12 24 C11.34 24 10.68 24 10 24 C9.67 17.73 9.34 11.46 9 5 C5.7 4.67 2.4 4.34 -1 4 C-1 1 -1 1 0 0 Z " fill="#F0AF42" transform="translate(361,234)"/>
<path d="M0 0 C0.99 0.33 1.98 0.66 3 1 C2.57316368 2.27445454 2.13302798 3.54445882 1.6875 4.8125 C1.44386719 5.52019531 1.20023437 6.22789062 0.94921875 6.95703125 C-0.10448835 9.22488646 -1.00139047 10.49510874 -3 12 C-4.32 12 -5.64 12 -7 12 C-7.33 10.35 -7.66 8.7 -8 7 C-6.74057614 5.80040625 -5.46704714 4.61560557 -4.1875 3.4375 C-3.12595703 2.44556641 -3.12595703 2.44556641 -2.04296875 1.43359375 C-1.36878906 0.96050781 -0.69460938 0.48742187 0 0 Z " fill="#101112" transform="translate(289,167)"/>
<path d="M0 0 C0.33 0.99 0.66 1.98 1 3 C1.66 3.33 2.32 3.66 3 4 C0.69 8.29 -1.62 12.58 -4 17 C-5.32 16.67 -6.64 16.34 -8 16 C-7.55838748 13.0191155 -6.87979989 11.8585881 -4.875 9.5 C-2.71142245 7.20768627 -2.71142245 7.20768627 -3.25 4.6875 C-3.4975 4.130625 -3.745 3.57375 -4 3 C-3.01 2.67 -2.02 2.34 -1 2 C-0.67 1.34 -0.34 0.68 0 0 Z " fill="#09090B" transform="translate(176,162)"/>
<path d="M0 0 C0.66 0 1.32 0 2 0 C2 2.97 2 5.94 2 9 C2.99 9 3.98 9 5 9 C5 10.32 5 11.64 5 13 C3.68 12.67 2.36 12.34 1 12 C1 11.34 1 10.68 1 10 C-0.98 10.99 -2.96 11.98 -5 13 C-5.625 10.625 -5.625 10.625 -6 8 C-5.34 7.34 -4.68 6.68 -4 6 C-1.875 6.375 -1.875 6.375 0 7 C0 4.69 0 2.38 0 0 Z " fill="#ED9455" transform="translate(407,250)"/>
<path d="M0 0 C1.65 0 3.3 0 5 0 C5.34155908 3.67176009 5.24249951 5.58028931 3.375 8.8125 C0.55839511 11.40674134 -1.2347642 11.74327938 -5 12 C-5.33 11.34 -5.66 10.68 -6 10 C-4.66601578 8.66601578 -3.28959804 7.37317474 -1.875 6.125 C0.44108109 3.97243243 0.44108109 3.97243243 0 0 Z " fill="#0D0D0F" transform="translate(280,184)"/>
<path d="M0 0 C0.66 0.33 1.32 0.66 2 1 C1.67 1.99 1.34 2.98 1 4 C1.99 4.33 2.98 4.66 4 5 C2.35 5.33 0.7 5.66 -1 6 C-1.042721 4.33388095 -1.04063832 2.66617115 -1 1 C-0.67 0.67 -0.34 0.34 0 0 Z M-5 6 C-3.02 6.495 -3.02 6.495 -1 7 C-1.66 7 -2.32 7 -3 7 C-3 7.66 -3 8.32 -3 9 C-2.01 9 -1.02 9 0 9 C0 10.65 0 12.3 0 14 C-1.65 14.66 -3.3 15.32 -5 16 C-5.33 15.67 -5.66 15.34 -6 15 C-5.91062197 13.47480724 -5.75462854 11.95318071 -5.5625 10.4375 C-5.46066406 9.61121094 -5.35882813 8.78492188 -5.25390625 7.93359375 C-5.17011719 7.29550781 -5.08632812 6.65742188 -5 6 Z " fill="#0F1012" transform="translate(133,419)"/>
<path d="M0 0 C1.2065625 0.0309375 1.2065625 0.0309375 2.4375 0.0625 C2.4375 0.7225 2.4375 1.3825 2.4375 2.0625 C3.0975 2.3925 3.7575 2.7225 4.4375 3.0625 C2.4575 5.3725 0.4775 7.6825 -1.5625 10.0625 C-2.8825 9.7325 -4.2025 9.4025 -5.5625 9.0625 C-5.5625 8.0725 -5.5625 7.0825 -5.5625 6.0625 C-4.9025 6.0625 -4.2425 6.0625 -3.5625 6.0625 C-3.5934375 4.8559375 -3.5934375 4.8559375 -3.625 3.625 C-3.54067676 0.16774696 -3.45725304 0.08432324 0 0 Z " fill="#111214" transform="translate(128.5625,438.9375)"/>
<path d="M0 0 C0.33 0.66 0.66 1.32 1 2 C2.98 1.34 4.96 0.68 7 0 C5.8125 3.4375 5.8125 3.4375 4 7 C1.5625 8.0625 1.5625 8.0625 -1 8 C-3.3125 7.0625 -3.3125 7.0625 -5 6 C-5 4.35 -5 2.7 -5 1 C-4.34 1 -3.68 1 -3 1 C-2.67 1.99 -2.34 2.98 -2 4 C-1.34 4 -0.68 4 0 4 C0 2.68 0 1.36 0 0 Z " fill="#0F1012" transform="translate(213,374)"/>
<path d="M0 0 C0.66 0 1.32 0 2 0 C3 3 3 3 2 6 C1.64763503 7.99673484 1.31165441 9.99650739 1 12 C-2.05263664 12.98120464 -3.94736336 12.98120464 -7 12 C-7 11.34 -7 10.68 -7 10 C-2.61538462 7 -2.61538462 7 0 7 C-0.185625 6.030625 -0.37125 5.06125 -0.5625 4.0625 C-0.706875 3.051875 -0.85125 2.04125 -1 1 C-0.67 0.67 -0.34 0.34 0 0 Z " fill="#111113" transform="translate(274,36)"/>
<path d="M0 0 C1.65322266 0.01740234 1.65322266 0.01740234 3.33984375 0.03515625 C4.99693359 0.04869141 4.99693359 0.04869141 6.6875 0.0625 C7.54214844 0.07410156 8.39679688 0.08570313 9.27734375 0.09765625 C9.27734375 3.39765625 9.27734375 6.69765625 9.27734375 10.09765625 C8.94734375 10.09765625 8.61734375 10.09765625 8.27734375 10.09765625 C8.27734375 7.12765625 8.27734375 4.15765625 8.27734375 1.09765625 C6.95734375 1.09765625 5.63734375 1.09765625 4.27734375 1.09765625 C3.94734375 2.74765625 3.61734375 4.39765625 3.27734375 6.09765625 C2.28734375 6.42765625 1.29734375 6.75765625 0.27734375 7.09765625 C-0.01140625 6.47890625 -0.30015625 5.86015625 -0.59765625 5.22265625 C-1.65985667 2.9643986 -1.65985667 2.9643986 -3.72265625 1.09765625 C-2.72265625 0.09765625 -2.72265625 0.09765625 0 0 Z " fill="#E68E59" transform="translate(379.72265625,221.90234375)"/>
<path d="M0 0 C2.31 0 4.62 0 7 0 C7.59732819 2.76264289 8 5.16032769 8 8 C4.89347355 7.6641593 3.39585697 7.40950721 1.1875 5.125 C0 3 0 3 0 0 Z " fill="#111214" transform="translate(231,312)"/>
<path d="M0 0 C0.33 0 0.66 0 1 0 C1 7.59 1 15.18 1 23 C0.34 22.67 -0.32 22.34 -1 22 C-1.31241455 19.28553021 -1.51336592 16.66090639 -1.625 13.9375 C-1.66367187 13.17888672 -1.70234375 12.42027344 -1.7421875 11.63867188 C-1.83673562 9.75952805 -1.91946756 7.87979664 -2 6 C-1.34 6 -0.68 6 0 6 C0 4.02 0 2.04 0 0 Z " fill="#E59062" transform="translate(454,235)"/>
<path d="M0 0 C0.99 0.33 1.98 0.66 3 1 C2.67 2.98 2.34 4.96 2 7 C-0.64 7 -3.28 7 -6 7 C-6.33 5.68 -6.66 4.36 -7 3 C-5.35 2.34 -3.7 1.68 -2 1 C-2 1.66 -2 2.32 -2 3 C-1.34 3 -0.68 3 0 3 C0 2.01 0 1.02 0 0 Z " fill="#111113" transform="translate(278,206)"/>
<path d="M0 0 C1.5625 1.6875 1.5625 1.6875 3 4 C2.8125 6.6875 2.8125 6.6875 2 9 C1.01 9.495 1.01 9.495 0 10 C-0.99 9.34 -1.98 8.68 -3 8 C-3.375 5.5625 -3.375 5.5625 -3 3 C-1.5 1.1875 -1.5 1.1875 0 0 Z " fill="#0F0F11" transform="translate(147,222)"/>
<path d="M0 0 C0 0.66 0 1.32 0 2 C0.66 2.33 1.32 2.66 2 3 C-0.83430453 6.2542015 -2.68607774 7.5206753 -7 8 C-7 7.34 -7 6.68 -7 6 C-7.66 5.67 -8.32 5.34 -9 5 C-7.87926138 4.16094435 -6.75325453 3.32892169 -5.625 2.5 C-4.99851562 2.0359375 -4.37203125 1.571875 -3.7265625 1.09375 C-2 0 -2 0 0 0 Z " fill="#F28D52" transform="translate(404,247)"/>
<path d="M0 0 C1.65 0 3.3 0 5 0 C5 0.99 5 1.98 5 3 C4.01 3.495 4.01 3.495 3 4 C3 5.65 3 7.3 3 9 C1.02 8.01 -0.96 7.02 -3 6 C-2.01 4.02 -1.02 2.04 0 0 Z " fill="#121213" transform="translate(228,165)"/>
<path d="M0 0 C2.96175123 0.61277612 4.38058783 1.25372522 7 3 C6.67 4.32 6.34 5.64 6 7 C6 6.34 6 5.68 6 5 C5.34 5 4.68 5 4 5 C3.67 6.65 3.34 8.3 3 10 C2.01 10.33 1.02 10.66 0 11 C0 10.34 0 9.68 0 9 C0.66 9 1.32 9 2 9 C1.42547254 5.06924356 1.42547254 5.06924356 -1 2 C-0.67 1.34 -0.34 0.68 0 0 Z " fill="#0E0F11" transform="translate(244,107)"/>
<path d="M0 0 C1.65 1.65 3.3 3.3 5 5 C5.185625 4.0409375 5.185625 4.0409375 5.375 3.0625 C5.58125 2.381875 5.7875 1.70125 6 1 C6.66 0.67 7.32 0.34 8 0 C8.6875 1.8125 8.6875 1.8125 9 4 C7.875 5.8125 7.875 5.8125 6 7 C1.57894737 6.57894737 1.57894737 6.57894737 0 5 C-0.04063832 3.33382885 -0.042721 1.66611905 0 0 Z " fill="#E78F59" transform="translate(394,240)"/>
<path d="M0 0 C0 0.66 0 1.32 0 2 C-1.32 2 -2.64 2 -4 2 C-3.67 4.31 -3.34 6.62 -3 9 C-3.99 8.34 -4.98 7.68 -6 7 C-6 6.34 -6 5.68 -6 5 C-6.66 4.67 -7.32 4.34 -8 4 C-5.97675095 -0.48005146 -4.79569304 -1.43870791 0 0 Z " fill="#F58E4A" transform="translate(360,236)"/>
<path d="M0 0 C0 1.65 0 3.3 0 5 C-0.99 5.33 -1.98 5.66 -3 6 C-3.66 5.01 -4.32 4.02 -5 3 C-5.99 2.34 -6.98 1.68 -8 1 C-4.93251126 -0.86240388 -3.40254489 -1.2151946 0 0 Z " fill="#F79047" transform="translate(349,224)"/>
<path d="M0 0 C0.33 0.99 0.66 1.98 1 3 C2.65 2.01 4.3 1.02 6 0 C6.33 0.99 6.66 1.98 7 3 C3.93882432 5.62386487 3.26826873 6 -1 6 C-1.33 4.35 -1.66 2.7 -2 1 C-1.34 0.67 -0.68 0.34 0 0 Z " fill="#101113" transform="translate(239,127)"/>
<path d="M0 0 C-0.33 2.31 -0.66 4.62 -1 7 C-4 7 -4 7 -6 6 C-6 4.68 -6 3.36 -6 2 C-3 0 -3 0 0 0 Z " fill="#0F0F10" transform="translate(280,26)"/>
<path d="M0 0 C1.65 0 3.3 0 5 0 C6.10914408 6.53162622 5.78441153 12.43507888 5 19 C4.67 19 4.34 19 4 19 C3.96261719 17.94039062 3.92523438 16.88078125 3.88671875 15.7890625 C3.82106742 14.40100576 3.75461979 13.01298651 3.6875 11.625 C3.66494141 10.92632812 3.64238281 10.22765625 3.61914062 9.5078125 C3.53015704 7.22711059 3.53015704 7.22711059 3 4 C2.01 3.34 1.02 2.68 0 2 C0 1.34 0 0.68 0 0 Z " fill="#F29555" transform="translate(442,235)"/>
<path d="M0 0 C1.65 0.33 3.3 0.66 5 1 C5.33 1.99 5.66 2.98 6 4 C4.02 4.99 2.04 5.98 0 7 C-1.125 2.25 -1.125 2.25 0 0 Z " fill="#F18B51" transform="translate(402,256)"/>
<path d="M0 0 C1.32 0 2.64 0 4 0 C3.42415568 2.38564077 2.77772405 4.66682784 2 7 C0.68 6.34 -0.64 5.68 -2 5 C-1.125 1.125 -1.125 1.125 0 0 Z " fill="#FC8F4B" transform="translate(397,238)"/>
<path d="M0 0 C0.33 0.66 0.66 1.32 1 2 C3.02463255 2.65213292 3.02463255 2.65213292 5 3 C5 3.66 5 4.32 5 5 C3.54207116 5.05399736 2.08357288 5.09279177 0.625 5.125 C-0.18710937 5.14820313 -0.99921875 5.17140625 -1.8359375 5.1953125 C-4 5 -4 5 -6 3 C-4.02 2.01 -2.04 1.02 0 0 Z " fill="#EFAB41" transform="translate(448,258)"/>
<path d="M0 0 C1.65 0 3.3 0 5 0 C4.75 1.875 4.75 1.875 4 4 C2.125 5.3125 2.125 5.3125 0 6 C-0.99 5.67 -1.98 5.34 -3 5 C-2.01 4.34 -1.02 3.68 0 3 C0 2.01 0 1.02 0 0 Z " fill="#F19A47" transform="translate(480,258)"/>
<path d="M0 0 C0.99 0 1.98 0 3 0 C3 1.65 3 3.3 3 5 C1.02 5.33 -0.96 5.66 -3 6 C-3.33 5.34 -3.66 4.68 -4 4 C-3.01 4 -2.02 4 -1 4 C-0.67 2.68 -0.34 1.36 0 0 Z " fill="#ED9359" transform="translate(465,241)"/>
<path d="M0 0 C0.33 0.66 0.66 1.32 1 2 C0.67 2.66 0.34 3.32 0 4 C0.99 4 1.98 4 3 4 C2.67 5.32 2.34 6.64 2 8 C0.68 8 -0.64 8 -2 8 C-2.125 5.125 -2.125 5.125 -2 2 C-1.34 1.34 -0.68 0.68 0 0 Z " fill="#F68F50" transform="translate(462,237)"/>
<path d="M0 0 C0.99 0.33 1.98 0.66 3 1 C3.33 2.65 3.66 4.3 4 6 C2.35 5.67 0.7 5.34 -1 5 C-1.33 3.68 -1.66 2.36 -2 1 C-1.34 0.67 -0.68 0.34 0 0 Z " fill="#F89F48" transform="translate(463,258)"/>
<path d="M0 0 C1.65 0.33 3.3 0.66 5 1 C5 1.99 5 2.98 5 4 C1.25 5.125 1.25 5.125 -1 4 C-0.67 2.68 -0.34 1.36 0 0 Z " fill="#131315" transform="translate(295,305)"/>
<path d="M0 0 C1.32 0 2.64 0 4 0 C3.375 1.875 3.375 1.875 2 4 C-1.125 5.25 -1.125 5.25 -4 6 C-3.34 4.68 -2.68 3.36 -2 2 C-1.34 2 -0.68 2 0 2 C0 1.34 0 0.68 0 0 Z " fill="#F3A73F" transform="translate(416,258)"/>
<path d="M0 0 C1.2065625 0.0309375 1.2065625 0.0309375 2.4375 0.0625 C2.7675 1.0525 3.0975 2.0425 3.4375 3.0625 C1.1275 3.3925 -1.1825 3.7225 -3.5625 4.0625 C-3.5625 0.08689024 -3.5625 0.08689024 0 0 Z " fill="#F8A533" transform="translate(363.5625,233.9375)"/>
<path d="M0 0 C3.3 0.33 6.6 0.66 10 1 C10 1.66 10 2.32 10 3 C6.37 2.67 2.74 2.34 -1 2 C-0.67 1.34 -0.34 0.68 0 0 Z " fill="#F3AC3B" transform="translate(421,260)"/>
<path d="M0 0 C2.475 0.495 2.475 0.495 5 1 C5.33 2.98 5.66 4.96 6 7 C5.01 7.495 5.01 7.495 4 8 C2.4375 5.625 2.4375 5.625 1 3 C1.33 2.34 1.66 1.68 2 1 C1.34 0.67 0.68 0.34 0 0 Z " fill="#F8A544" transform="translate(436,234)"/>
<path d="M0 0 C2.31 0.66 4.62 1.32 7 2 C6.34 3.32 5.68 4.64 5 6 C3.0625 5.25 3.0625 5.25 1 4 C0.25 1.875 0.25 1.875 0 0 Z " fill="#131315" transform="translate(171,314)"/>
<path d="M0 0 C3.63 0 7.26 0 11 0 C10.34 1.32 9.68 2.64 9 4 C9 3.34 9 2.68 9 2 C6.03 1.67 3.06 1.34 0 1 C0 0.67 0 0.34 0 0 Z " fill="#FB8636" transform="translate(317,223)"/>
<path d="M0 0 C1.32 0 2.64 0 4 0 C4 2.64 4 5.28 4 8 C3.01 7.67 2.02 7.34 1 7 C0.67 4.69 0.34 2.38 0 0 Z " fill="#000002" transform="translate(181,191)"/>
<path d="M0 0 C0.99 0.33 1.98 0.66 3 1 C2.01 2.98 1.02 4.96 0 7 C-0.66 6.67 -1.32 6.34 -2 6 C-2.625 3.9375 -2.625 3.9375 -3 2 C-2.01 1.34 -1.02 0.68 0 0 Z " fill="#0C0B0D" transform="translate(47,434)"/>
<path d="M0 0 C0 4.45848315 -0.50395696 7.25593545 -3 11 C-3.75 8.3125 -3.75 8.3125 -4 5 C-2.0625 2.125 -2.0625 2.125 0 0 Z " fill="#E08D5E" transform="translate(463,250)"/>
<path d="M0 0 C0.99 0 1.98 0 3 0 C3 1.32 3 2.64 3 4 C3.66 4.33 4.32 4.66 5 5 C3.02 5 1.04 5 -1 5 C-0.67 3.35 -0.34 1.7 0 0 Z " fill="#FC9A41" transform="translate(463,236)"/>
<path d="M0 0 C2.125 0.375 2.125 0.375 4 1 C2.35 2.65 0.7 4.3 -1 6 C-1.625 4.125 -1.625 4.125 -2 2 C-1.34 1.34 -0.68 0.68 0 0 Z " fill="#F99A43" transform="translate(452,226)"/>
<path d="M0 0 C0.99 0.33 1.98 0.66 3 1 C1.7508258 4.45925163 0.32472205 7.14693203 -2 10 C-1.46274105 6.62294375 -0.88935377 3.303314 0 0 Z " fill="#010101" transform="translate(274,1)"/>
<path d="M0 0 C0.33 0 0.66 0 1 0 C1 1.65 1 3.3 1 5 C-0.32 5 -1.64 5 -3 5 C-3.33 3.68 -3.66 2.36 -4 1 C-3.01 1.33 -2.02 1.66 -1 2 C-0.67 1.34 -0.34 0.68 0 0 Z " fill="#0E0E10" transform="translate(276,214)"/>
<path d="M0 0 C1.65 0 3.3 0 5 0 C4.34 1.65 3.68 3.3 3 5 C2.01 4.67 1.02 4.34 0 4 C0 2.68 0 1.36 0 0 Z " fill="#121315" transform="translate(280,184)"/>
<path d="M0 0 C2 1.8125 2 1.8125 4 4 C4 4.99 4 5.98 4 7 C3.34 7 2.68 7 2 7 C2 6.34 2 5.68 2 5 C1.34 4.67 0.68 4.34 0 4 C0.33 3.34 0.66 2.68 1 2 C0.34 2 -0.32 2 -1 2 C-1.33 2.66 -1.66 3.32 -2 4 C-2 3.01 -2 2.02 -2 1 C-1.34 0.67 -0.68 0.34 0 0 Z " fill="#040405" transform="translate(187,107)"/>
<path d="M0 0 C0.66 0.66 1.32 1.32 2 2 C1.8125 4.0625 1.8125 4.0625 1 6 C0.01 6.33 -0.98 6.66 -2 7 C-2.6875 5.1875 -2.6875 5.1875 -3 3 C-1.5625 1.25 -1.5625 1.25 0 0 Z " fill="#0D0D0F" transform="translate(180,201)"/>
<path d="M0 0 C2.475 0.495 2.475 0.495 5 1 C5 1.66 5 2.32 5 3 C3.02 3.99 3.02 3.99 1 5 C0.67 3.35 0.34 1.7 0 0 Z " fill="#111214" transform="translate(227,156)"/>
</svg>
